<svg width="144" height="42" viewBox="0 0 144 42" fill="none" xmlns="http://www.w3.org/2000/svg">
<path d="M48.5046 9.95931C48.5046 10.9107 48.2128 11.6727 47.6381 12.2409C46.9773 12.9146 46.1166 13.2535 45.0619 13.2535C44.0539 13.2535 43.1933 12.9089 42.4873 12.2295C41.7798 11.5402 41.4268 10.6942 41.4268 9.68158C41.4268 8.66896 41.7798 7.82297 42.4873 7.13934C43.1933 6.45428 44.0539 6.10962 45.0619 6.10962C45.5637 6.10962 46.0422 6.21074 46.4988 6.39874C46.9539 6.58816 47.3244 6.84452 47.5928 7.1607L46.9831 7.76172C46.5148 7.22194 45.8774 6.95561 45.0619 6.95561C44.3267 6.95561 43.6893 7.20627 43.1481 7.71187C42.6127 8.2189 42.3443 8.87547 42.3443 9.68158C42.3443 10.4877 42.6127 11.15 43.1481 11.657C43.6893 12.1569 44.3267 12.4132 45.0619 12.4132C45.8424 12.4132 46.4988 12.1569 47.0166 11.6513C47.358 11.3166 47.552 10.8551 47.6031 10.2655H45.0619V9.44231H48.452C48.4929 9.62034 48.5046 9.79267 48.5046 9.95931Z" fill="white"/>
<path d="M53.8829 7.10515H50.6985V9.26997H53.5693V10.0932H50.6985V12.258H53.8829V13.0969H49.797V6.26628H53.8829V7.10515Z" fill="white"/>
<path d="M57.6785 13.0969H56.777V7.10515H54.8238V6.26628H59.6332C59.6332 6.26628 59.7624 6.8041 59.6332 7.10515C59.3322 7.80664 57.6785 7.10515 57.6785 7.10515V13.0969Z" fill="white"/>
<path d="M63.1138 13.0969V6.26628H64.0138V13.0969H63.1138Z" fill="white"/>
<path d="M68.0035 13.0969H67.1093V7.10515H65.1487V6.26628H69.964V7.10515H68.0035V13.0969Z" fill="white"/>
<path d="M79.0695 12.2181C78.3795 12.9089 77.5247 13.2535 76.505 13.2535C75.4795 13.2535 74.6247 12.9089 73.9347 12.2181C73.2462 11.5288 72.9034 10.6828 72.9034 9.68158C72.9034 8.68035 73.2462 7.83436 73.9347 7.14503C74.6247 6.45428 75.4795 6.10962 76.505 6.10962C77.5189 6.10962 78.3737 6.45428 79.0637 7.15073C79.758 7.84575 80.1008 8.68605 80.1008 9.68158C80.1008 10.6828 79.758 11.5288 79.0695 12.2181ZM74.6014 11.6456C75.1207 12.1569 75.7523 12.4132 76.505 12.4132C77.2519 12.4132 77.8894 12.1569 78.4029 11.6456C78.9207 11.1343 79.1833 10.4777 79.1833 9.68158C79.1833 8.88544 78.9207 8.22887 78.4029 7.71757C77.8894 7.20628 77.2519 6.94991 76.505 6.94991C75.7523 6.94991 75.1207 7.20628 74.6014 7.71757C74.0835 8.22887 73.821 8.88544 73.821 9.68158C73.821 10.4777 74.0835 11.1343 74.6014 11.6456Z" fill="white"/>
<path d="M81.3655 13.0969V6.26628H82.4596L85.8614 11.5786H85.9008L85.8614 10.2655V6.26628H86.7614V13.0969H85.822L82.2597 7.52245H82.2204L82.2597 8.84128V13.0969H81.3655Z" fill="white"/>
<path d="M72.6821 23.0726C69.9411 23.0726 67.702 25.1092 67.702 27.9192C67.702 30.7065 69.9411 32.7645 72.6821 32.7645C75.4289 32.7645 77.6681 30.7065 77.6681 27.9192C77.6681 25.1092 75.4289 23.0726 72.6821 23.0726ZM72.6821 30.856C71.1781 30.856 69.8842 29.644 69.8842 27.9192C69.8842 26.1717 71.1781 24.9811 72.6821 24.9811C74.1861 24.9811 75.4858 26.1717 75.4858 27.9192C75.4858 29.644 74.1861 30.856 72.6821 30.856ZM61.816 23.0726C59.0692 23.0726 56.8358 25.1092 56.8358 27.9192C56.8358 30.7065 59.0692 32.7645 61.816 32.7645C64.5613 32.7645 66.7961 30.7065 66.7961 27.9192C66.7961 25.1092 64.5613 23.0726 61.816 23.0726ZM61.816 30.856C60.3105 30.856 59.0123 29.644 59.0123 27.9192C59.0123 26.1717 60.3105 24.9811 61.816 24.9811C63.3199 24.9811 64.6138 26.1717 64.6138 27.9192C64.6138 29.644 63.3199 30.856 61.816 30.856ZM48.8857 24.5581V26.6175H53.9227C53.7754 27.7683 53.3815 28.6143 52.7776 29.2039C52.0424 29.916 50.8973 30.7065 48.8857 30.7065C45.7859 30.7065 43.3585 28.2639 43.3585 25.2374C43.3585 22.2109 45.7859 19.7684 48.8857 19.7684C50.5618 19.7684 51.7813 20.4079 52.6813 21.2368L54.1678 19.7855C52.9089 18.6119 51.2343 17.7104 48.8857 17.7104C44.6349 17.7104 41.0625 21.0872 41.0625 25.2374C41.0625 29.3876 44.6349 32.7645 48.8857 32.7645C51.1832 32.7645 52.9089 32.0296 54.2655 30.6509C55.6557 29.2936 56.089 27.3852 56.089 25.8441C56.089 25.3656 56.0481 24.9255 55.9752 24.5581H48.8857ZM101.759 26.1546C101.349 25.0708 100.084 23.0726 97.5084 23.0726C94.9556 23.0726 92.8302 25.0366 92.8302 27.9192C92.8302 30.6338 94.9337 32.7645 97.7534 32.7645C100.033 32.7645 101.349 31.4072 101.89 30.6167L100.198 29.5158C99.6337 30.3219 98.865 30.856 97.7534 30.856C96.6492 30.856 95.8571 30.3618 95.3494 29.3876L101.988 26.7058L101.759 26.1546ZM94.9906 27.7683C94.9337 25.8997 96.477 24.9426 97.5828 24.9426C98.4492 24.9426 99.1845 25.3656 99.4295 25.9709L94.9906 27.7683ZM89.5947 32.4696H91.777V18.2274H89.5947V32.4696ZM86.0208 24.1522H85.9479C85.4577 23.5853 84.5227 23.0726 83.3382 23.0726C80.8525 23.0726 78.5798 25.2032 78.5798 27.9349C78.5798 30.6509 80.8525 32.7645 83.3382 32.7645C84.5227 32.7645 85.4577 32.2475 85.9479 31.6635H86.0208V32.3586C86.0208 34.2115 85.007 35.207 83.3717 35.207C82.0384 35.207 81.2113 34.267 80.87 33.4766L78.9722 34.2499C79.5192 35.5346 80.9677 37.1155 83.3717 37.1155C85.9304 37.1155 88.0893 35.6457 88.0893 32.0694V23.3674H86.0208V24.1522ZM83.5249 30.856C82.0209 30.856 80.762 29.6269 80.762 27.9349C80.762 26.2273 82.0209 24.9811 83.5249 24.9811C85.007 24.9811 86.1754 26.2273 86.1754 27.9349C86.1754 29.6269 85.007 30.856 83.5249 30.856ZM111.976 18.2274H106.757V32.4696H108.933V27.0733H111.976C114.393 27.0733 116.764 25.3656 116.764 22.6496C116.764 19.935 114.387 18.2274 111.976 18.2274ZM112.033 25.0922H108.933V20.2085H112.033C113.658 20.2085 114.586 21.5259 114.586 22.6496C114.586 23.752 113.658 25.0922 112.033 25.0922ZM125.487 23.0455C123.914 23.0455 122.279 23.7235 121.607 25.226L123.538 26.0165C123.954 25.226 124.718 24.9697 125.526 24.9697C126.655 24.9697 127.801 25.6319 127.818 26.8012V26.9508C127.424 26.7286 126.581 26.3996 125.544 26.3996C123.464 26.3996 121.344 27.5176 121.344 29.6041C121.344 31.5126 123.048 32.7417 124.963 32.7417C126.428 32.7417 127.236 32.0965 127.744 31.3459H127.818V32.4469H129.92V26.9835C129.92 24.4584 127.989 23.0455 125.487 23.0455ZM125.224 30.8503C124.513 30.8503 123.521 30.5056 123.521 29.644C123.521 28.5416 124.758 28.1186 125.828 28.1186C126.787 28.1186 127.236 28.3251 127.818 28.5972C127.647 29.916 126.485 30.8503 125.224 30.8503ZM137.578 23.3574L135.077 29.5315H135.002L132.416 23.3574H130.069L133.955 31.9854L131.738 36.7865H134.012L140 23.3574H137.578ZM117.96 32.4696H120.142V18.2274H117.96V32.4696Z" fill="white"/>
<path d="M4.54119 6.87759C4.19839 7.22795 4 7.77343 4 8.47984V33.6773C4 34.3837 4.19839 34.9292 4.54119 35.2795L4.6258 35.3564L19.0877 21.2424V20.9091L4.6258 6.79499L4.54119 6.87759Z" fill="url(#paint0_linear_23_129)"/>
<path d="M23.9022 25.9492L19.0869 21.2421V20.9089L23.908 16.2018L24.016 16.263L29.7255 19.4348C31.3549 20.3349 31.3549 21.8161 29.7255 22.7219L24.016 25.888L23.9022 25.9492V25.9492Z" fill="url(#paint1_linear_23_129)"/>
<path d="M24.0157 25.888L19.0866 21.0756L4.54004 35.2794C5.08123 35.8348 5.96377 35.9018 6.96738 35.3463L24.0157 25.888" fill="url(#paint2_linear_23_129)"/>
<path d="M24.0157 16.2632L6.96738 6.80493C5.96377 6.25517 5.08123 6.32211 4.54004 6.87756L19.0866 21.0757L24.0157 16.2632Z" fill="url(#paint3_linear_23_129)"/>
<defs>
<linearGradient id="paint0_linear_23_129" x1="17.8037" y1="33.9397" x2="-1.3124" y2="14.3604" gradientUnits="userSpaceOnUse">
<stop stop-color="#00A0FF"/>
<stop offset="0.0066" stop-color="#00A1FF"/>
<stop offset="0.2601" stop-color="#00BEFF"/>
<stop offset="0.5122" stop-color="#00D2FF"/>
<stop offset="0.7604" stop-color="#00DFFF"/>
<stop offset="1" stop-color="#00E3FF"/>
</linearGradient>
<linearGradient id="paint1_linear_23_129" x1="31.8473" y1="21.0739" x2="3.6097" y2="21.0739" gradientUnits="userSpaceOnUse">
<stop stop-color="#FFE000"/>
<stop offset="0.4087" stop-color="#FFBD00"/>
<stop offset="0.7754" stop-color="#FFA500"/>
<stop offset="1" stop-color="#FF9C00"/>
</linearGradient>
<linearGradient id="paint2_linear_23_129" x1="21.3354" y1="18.4594" x2="-4.5876" y2="-8.09167" gradientUnits="userSpaceOnUse">
<stop stop-color="#FF3A44"/>
<stop offset="1" stop-color="#C31162"/>
</linearGradient>
<linearGradient id="paint3_linear_23_129" x1="0.878373" y1="43.6626" x2="12.4541" y2="31.8064" gradientUnits="userSpaceOnUse">
<stop stop-color="#32A071"/>
<stop offset="0.0685" stop-color="#2DA771"/>
<stop offset="0.4762" stop-color="#15CF74"/>
<stop offset="0.8009" stop-color="#06E775"/>
<stop offset="1" stop-color="#00F076"/>
</linearGradient>
</defs>
</svg>
